<?xml version="1.0" encoding="utf-8"?>
<svg viewBox="6429 2775.3 1200 1200" width="1200" height="1200" xmlns="http://www.w3.org/2000/svg">
  <path d="M 7419.01 3375.68 C 7419.01 3591.24 7244.27 3765.98 7028.71 3765.98 C 6956.09 3765.98 6888.1 3746.15 6829.87 3711.6 C 6727.28 3795.83 6619.68 3867.17 6538.55 3864.01 C 6547.86 3775.09 6650.89 3650.57 6704.43 3592.95 C 6662.73 3530.85 6638.41 3456.1 6638.41 3375.68 C 6638.41 3160.12 6813.15 2985.38 7028.71 2985.38 C 7110.54 2985.38 7186.5 3010.56 7249.24 3053.61 L 7334.71 2932.08 C 7338.35 2926.61 7343.29 2920.71 7348.11 2915.88 C 7387.31 2876.69 7450.86 2876.69 7490.06 2915.88 C 7529.25 2955.08 7529.25 3018.63 7490.06 3057.83 C 7485.23 3062.66 7479.32 3067.6 7473.85 3071.23 L 7352 3156.94 C 7394.3 3219.33 7419.01 3294.62 7419.01 3375.68 Z M 7194.21 3219.96 C 7151.71 3219.96 7117.25 3254.42 7117.25 3296.92 C 7117.25 3339.42 7151.71 3373.88 7194.21 3373.88 C 7236.71 3373.88 7271.17 3339.42 7271.17 3296.92 C 7271.17 3254.42 7236.71 3219.96 7194.21 3219.96 Z M 6849.52 3332.7 C 6807.02 3332.7 6772.56 3367.16 6772.56 3409.66 C 6772.56 3452.16 6807.02 3486.62 6849.52 3486.62 C 6892.02 3486.62 6926.48 3452.16 6926.48 3409.66 C 6926.48 3367.16 6892.02 3332.7 6849.52 3332.7 Z" style="opacity: 1;"/>
</svg>